<?xml version="1.0" encoding="UTF-8"?>
<svg width="46px" height="46px" viewBox="0 0 46 46" version="1.1" xmlns="http://www.w3.org/2000/svg" xmlns:xlink="http://www.w3.org/1999/xlink">
    <!-- Generator: Sketch 41 (35326) - http://www.bohemiancoding.com/sketch -->
    <title>icon/button-close</title>
    <desc>Created with Sketch.</desc>
    <defs></defs>
    <g id="Symbols" stroke="none" stroke-width="1" fill="none" fill-rule="evenodd">
        <g id="icon/button-close">
            <rect id="Rectangle-Copy-3" fill="#FFFFFF" x="7" y="7" width="32" height="32"></rect>
            <path d="M18.0502525,22.5 L14.5165914,26.0336611 C13.1533309,27.3969216 13.1478836,29.6184464 14.5147186,30.9852814 C15.8787724,32.3493352 18.0984696,32.3512779 19.4663389,30.9834086 L23,27.4497475 L26.5336611,30.9834086 C27.8969216,32.3466691 30.1184464,32.3521164 31.4852814,30.9852814 C32.8493352,29.6212276 32.8512779,27.4015304 31.4834086,26.0336611 L27.9497475,22.5 L31.4834086,18.9663389 C32.8466691,17.6030784 32.8521164,15.3815536 31.4852814,14.0147186 C30.1212276,12.6506648 27.9015304,12.6487221 26.5336611,14.0165914 L23,17.5502525 L19.4663389,14.0165914 C18.1030784,12.6533309 15.8815536,12.6478836 14.5147186,14.0147186 C13.1506648,15.3787724 13.1487221,17.5984696 14.5165914,18.9663389 L18.0502525,22.5 Z M23,46 C35.7025492,46 46,35.7025492 46,23 C46,10.2974508 35.7025492,0 23,0 C10.2974508,0 0,10.2974508 0,23 C0,35.7025492 10.2974508,46 23,46 Z" id="Combined-Shape" fill="#FF9933"></path>
        </g>
    </g>
</svg>