<?xml version="1.0" encoding="UTF-8"?>
<svg width="92px" height="46px" viewBox="0 0 92 46" version="1.1" xmlns="http://www.w3.org/2000/svg" xmlns:xlink="http://www.w3.org/1999/xlink">
    <!-- Generator: Sketch 41 (35326) - http://www.bohemiancoding.com/sketch -->
    <title>element/nav-arrows</title>
    <desc>Created with Sketch.</desc>
    <defs></defs>
    <g id="Symbols" stroke="none" stroke-width="1" fill="none" fill-rule="evenodd">
        <g id="element/nav-arrows" fill="#FFFFFF">
            <g id="icon/button-arrow" transform="translate(0.000000, 0.000000)">
                <path d="M23,46 C35.7025492,46 46,35.7025492 46,23 C46,10.2974508 35.7025492,0 23,0 C10.2974508,0 0,10.2974508 0,23 C0,35.7025492 10.2974508,46 23,46 Z M28.8339517,18.7845938 C30.3886828,17.2325241 30.3886828,14.716122 28.8339517,13.1640523 C27.2792206,11.6119826 24.7585035,11.6119826 23.2037724,13.1640523 L16.1660483,20.1897292 C14.6113172,21.7417989 14.6113172,24.2582011 16.1660483,25.8102708 L23.2037724,32.8359477 C24.7585035,34.3880174 27.2792206,34.3880174 28.8339517,32.8359477 C30.3886828,31.283878 30.3886828,28.7674759 28.8339517,27.2154062 L24.6113172,23 L28.8339517,18.7845938 Z" id="Combined-Shape"></path>
            </g>
            <g id="icon/button-arrow" transform="translate(69.000000, 23.000000) rotate(-180.000000) translate(-69.000000, -23.000000) translate(46.000000, 0.000000)">
                <path d="M23,46 C35.7025492,46 46,35.7025492 46,23 C46,10.2974508 35.7025492,0 23,0 C10.2974508,0 0,10.2974508 0,23 C0,35.7025492 10.2974508,46 23,46 Z M28.8339517,18.7845938 C30.3886828,17.2325241 30.3886828,14.716122 28.8339517,13.1640523 C27.2792206,11.6119826 24.7585035,11.6119826 23.2037724,13.1640523 L16.1660483,20.1897292 C14.6113172,21.7417989 14.6113172,24.2582011 16.1660483,25.8102708 L23.2037724,32.8359477 C24.7585035,34.3880174 27.2792206,34.3880174 28.8339517,32.8359477 C30.3886828,31.283878 30.3886828,28.7674759 28.8339517,27.2154062 L24.6113172,23 L28.8339517,18.7845938 Z" id="Combined-Shape"></path>
            </g>
        </g>
    </g>
</svg>