<?xml version="1.0" encoding="UTF-8"?>
<svg width="92px" height="46px" viewBox="0 0 92 46" version="1.1" xmlns="http://www.w3.org/2000/svg" xmlns:xlink="http://www.w3.org/1999/xlink">
    <!-- Generator: Sketch 41 (35326) - http://www.bohemiancoding.com/sketch -->
    <title>element/nav-arrows</title>
    <desc>Created with Sketch.</desc>
    <defs>
        <circle id="path-1" cx="23" cy="23" r="23"></circle>
        <mask id="mask-2" maskContentUnits="userSpaceOnUse" maskUnits="objectBoundingBox" x="0" y="0" width="46" height="46" fill="white">
            <use xlink:href="#path-1"></use>
        </mask>
        <circle id="path-3" cx="23" cy="23" r="23"></circle>
        <mask id="mask-4" maskContentUnits="userSpaceOnUse" maskUnits="objectBoundingBox" x="0" y="0" width="46" height="46" fill="white">
            <use xlink:href="#path-3"></use>
        </mask>
    </defs>
    <g id="Symbols" stroke="none" stroke-width="1" fill="none" fill-rule="evenodd">
        <g id="element/nav-arrows">
            <g id="icon/button-arrow" transform="translate(0.000000, 0.000000)">
                <g id="icon/arrow" transform="translate(23.000000, 23.000000) rotate(-180.000000) translate(-23.000000, -23.000000) translate(13.000000, 16.000000)" fill-rule="evenodd" fill="#FFFFFF">
                    <path d="M19.1666667,8 C19.626904,8 20,7.55228475 20,7 C20,6.44771525 19.626904,6 19.1666667,6 L0.833333333,6 C0.373096042,6 0,6.44771525 0,7 C0,7.55228475 0.373096042,8 0.833333333,8 L19.1666667,8 Z" id="Line" transform="translate(10.000000, 7.000000) rotate(-180.000000) translate(-10.000000, -7.000000) "></path>
                    <path d="M12,7 C12,6.74407768 12.0976311,6.48815536 12.2928932,6.29289322 L18.2928932,0.292893219 C18.6834175,-0.0976310729 19.3165825,-0.0976310729 19.7071068,0.292893219 C20.0976311,0.683417511 20.0976311,1.31658249 19.7071068,1.70710678 L14.4142136,7 L19.7071068,12.2928932 C20.0976311,12.6834175 20.0976311,13.3165825 19.7071068,13.7071068 C19.3165825,14.0976311 18.6834175,14.0976311 18.2928932,13.7071068 L12.2928932,7.70710678 C12.0976311,7.51184464 12,7.25592232 12,7 Z" id="Combined-Shape" transform="translate(16.000000, 7.000000) rotate(-180.000000) translate(-16.000000, -7.000000) "></path>
                </g>
                <use id="Oval-2" stroke="#FFFFFF" mask="url(#mask-2)" stroke-width="4" xlink:href="#path-1"></use>
            </g>
            <g id="icon/button-arrow" transform="translate(69.000000, 23.000000) rotate(-180.000000) translate(-69.000000, -23.000000) translate(46.000000, 0.000000)">
                <g id="icon/arrow" transform="translate(23.000000, 23.000000) rotate(-180.000000) translate(-23.000000, -23.000000) translate(13.000000, 16.000000)" fill-rule="evenodd" fill="#FFFFFF">
                    <path d="M19.1666667,8 C19.626904,8 20,7.55228475 20,7 C20,6.44771525 19.626904,6 19.1666667,6 L0.833333333,6 C0.373096042,6 0,6.44771525 0,7 C0,7.55228475 0.373096042,8 0.833333333,8 L19.1666667,8 Z" id="Line" transform="translate(10.000000, 7.000000) rotate(-180.000000) translate(-10.000000, -7.000000) "></path>
                    <path d="M12,7 C12,6.74407768 12.0976311,6.48815536 12.2928932,6.29289322 L18.2928932,0.292893219 C18.6834175,-0.0976310729 19.3165825,-0.0976310729 19.7071068,0.292893219 C20.0976311,0.683417511 20.0976311,1.31658249 19.7071068,1.70710678 L14.4142136,7 L19.7071068,12.2928932 C20.0976311,12.6834175 20.0976311,13.3165825 19.7071068,13.7071068 C19.3165825,14.0976311 18.6834175,14.0976311 18.2928932,13.7071068 L12.2928932,7.70710678 C12.0976311,7.51184464 12,7.25592232 12,7 Z" id="Combined-Shape" transform="translate(16.000000, 7.000000) rotate(-180.000000) translate(-16.000000, -7.000000) "></path>
                </g>
                <use id="Oval-2" stroke="#FFFFFF" mask="url(#mask-4)" stroke-width="4" xlink:href="#path-3"></use>
            </g>
        </g>
    </g>
</svg>