<?xml version="1.0" encoding="UTF-8"?>
<svg width="92px" height="46px" viewBox="0 0 92 46" version="1.1" xmlns="http://www.w3.org/2000/svg" xmlns:xlink="http://www.w3.org/1999/xlink">
    <!-- Generator: Sketch 41 (35326) - http://www.bohemiancoding.com/sketch -->
    <title>element/nav-arrows</title>
    <desc>Created with Sketch.</desc>
    <defs></defs>
    <g id="Symbols" stroke="none" stroke-width="1" fill="none" fill-rule="evenodd">
        <g id="element/nav-arrows">
            <g id="icon/button-arrow" transform="translate(0.000000, 0.000000)">
                <path d="M29.5857864,22 L13.8333333,22 C13.373096,22 13,22.4477153 13,23 C13,23.5522847 13.373096,24 13.8333333,24 L29.5857864,24 L25.2928932,28.2928932 C24.9023689,28.6834175 24.9023689,29.3165825 25.2928932,29.7071068 C25.6834175,30.0976311 26.3165825,30.0976311 26.7071068,29.7071068 L32.4946379,23.9195756 C32.7918163,23.7667504 33,23.4125495 33,23 C33,22.5874505 32.7918163,22.2332496 32.4946379,22.0804244 L26.7071068,16.2928932 C26.3165825,15.9023689 25.6834175,15.9023689 25.2928932,16.2928932 C24.9023689,16.6834175 24.9023689,17.3165825 25.2928932,17.7071068 L29.5857864,22 Z M23,46 C35.7025492,46 46,35.7025492 46,23 C46,10.2974508 35.7025492,-1.0658141e-14 23,-1.0658141e-14 C10.2974508,-1.0658141e-14 -3.55271368e-15,10.2974508 -3.55271368e-15,23 C-3.55271368e-15,35.7025492 10.2974508,46 23,46 Z" id="Combined-Shape" fill="#FFFFFF" transform="translate(23.000000, 23.000000) rotate(-180.000000) translate(-23.000000, -23.000000) "></path>
                <g id="arrow" stroke-width="1" transform="translate(23.000000, 23.000000) rotate(-180.000000) translate(-23.000000, -23.000000) translate(13.000000, 16.000000)"></g>
            </g>
            <g id="icon/button-arrow" transform="translate(69.000000, 23.000000) rotate(-180.000000) translate(-69.000000, -23.000000) translate(46.000000, 0.000000)">
                <path d="M29.5857864,22 L13.8333333,22 C13.373096,22 13,22.4477153 13,23 C13,23.5522847 13.373096,24 13.8333333,24 L29.5857864,24 L25.2928932,28.2928932 C24.9023689,28.6834175 24.9023689,29.3165825 25.2928932,29.7071068 C25.6834175,30.0976311 26.3165825,30.0976311 26.7071068,29.7071068 L32.4946379,23.9195756 C32.7918163,23.7667504 33,23.4125495 33,23 C33,22.5874505 32.7918163,22.2332496 32.4946379,22.0804244 L26.7071068,16.2928932 C26.3165825,15.9023689 25.6834175,15.9023689 25.2928932,16.2928932 C24.9023689,16.6834175 24.9023689,17.3165825 25.2928932,17.7071068 L29.5857864,22 Z M23,46 C35.7025492,46 46,35.7025492 46,23 C46,10.2974508 35.7025492,-1.0658141e-14 23,-1.0658141e-14 C10.2974508,-1.0658141e-14 -3.55271368e-15,10.2974508 -3.55271368e-15,23 C-3.55271368e-15,35.7025492 10.2974508,46 23,46 Z" id="Combined-Shape" fill="#FFFFFF" transform="translate(23.000000, 23.000000) rotate(-180.000000) translate(-23.000000, -23.000000) "></path>
                <g id="arrow" stroke-width="1" transform="translate(23.000000, 23.000000) rotate(-180.000000) translate(-23.000000, -23.000000) translate(13.000000, 16.000000)"></g>
            </g>
        </g>
    </g>
</svg>